<?xml version="1.0" encoding="UTF-8"?>
<svg id="Layer_2" data-name="Layer 2" xmlns="http://www.w3.org/2000/svg" viewBox="0 0 93.49 109.1">
  <defs>
    <style>
      .cls-1 {
        fill: #f9a144;
        stroke-width: 0px;
      }
    </style>
  </defs>
  <g id="Layer_1-2" data-name="Layer 1">
    <path class="cls-1" d="m88.37,41.11c-4.72-9.25-12.1-16.25-20.73-20.56,1.35-5.58,2.03-9.63,2.04-12.16,0-1.27-.44-2.17-1.33-2.71-1.64-.96-6.25-2.24-13.83-3.84-10.31-2.18-15.64-2.43-16-.75-.05.25.08.56.39.94,3.36,4.39,5.64,8.92,6.84,13.59-6.84.14-13.75,1.79-20.26,5.1C2.51,32.45-6.62,60.6,5.12,83.59c11.73,22.99,39.88,32.12,62.87,20.39,22.99-11.73,32.12-39.88,20.39-62.87Zm-30.32,43.41c-12.24,6.25-27.23,1.39-33.48-10.86-6.25-12.24-1.39-27.23,10.86-33.48,12.24-6.25,27.23-1.39,33.48,10.86,6.25,12.24,1.39,27.23-10.86,33.48Z"/>
  </g>
</svg>